<?xml version="1.0" standalone="no"?><!DOCTYPE svg PUBLIC "-//W3C//DTD SVG 1.1//EN" "http://www.w3.org/Graphics/SVG/1.1/DTD/svg11.dtd"><svg t="1721834290359" class="icon" viewBox="0 0 1024 1024" version="1.1" xmlns="http://www.w3.org/2000/svg" p-id="22081" xmlns:xlink="http://www.w3.org/1999/xlink" width="256" height="256"><path d="M15.6 4.2C11 6.6 6.4 11.2 4 16c-4 7.8-4 11.4-4 225S0 458.2 4 466c2.6 5.2 6.8 9.4 12 12 7.8 4 11 4 327.6 4h319.8l1.2-30.6c0.8-23.8 2.2-34.8 6.2-50.4 8-31 23.8-61.4 43.8-84.8l9.4-11V164.6c0-137.2-0.2-141-4-148.6-2.6-5.2-6.8-9.4-12-12-7.8-4-11-4-346.4-4C28.4 0.2 22.8 0.2 15.6 4.2zM406 126c5.2 2.6 9.4 6.8 12 12 3.8 7.6 4 11.6 4 104s-0.2 96.4-4 104c-4.6 9-16 16-26 16s-21.4-7-26-16c-3.8-7.6-4-11.6-4-104s0.2-96.4 4-104c7.4-14.6 24.8-19.8 40-12z m-120 60c5.2 2.6 9.4 6.8 12 12 3.8 7.4 4 11.6 4 74s-0.2 66.6-4 74c-4.6 9-16 16-26 16s-21.4-7-26-16c-3.8-7.4-4-11.6-4-74s0.2-66.6 4-74c7.4-14.6 24.8-19.8 40-12z m-120 60c14 7.2 16 14 16 56 0 32.2-0.4 37-4 44-4.6 9-16 16-26 16s-21.4-7-26-16c-3.6-7-4-11.8-4-44s0.4-37 4-44c7.4-14.6 24.8-19.8 40-12zM856.2 124.2c-45.4 8.8-78.2 55.6-70.6 101 6.2 37.2 35.4 68 70.6 74.6l8.8 1.6-8 1.4c-28.8 5.2-45.4 11.4-65 24.2-30.6 19.8-51.2 48.4-63.6 88-2.8 8.6-3.2 27.8-3.6 136-0.2 69.2 0 124.2 0.4 122 0.4-2.2 1.8-9 3-15 8.8-43.4 45.2-86 88.8-104.4 19.4-8.2 32.4-10.6 57-10.6s37.6 2.4 57 10.6c44 18.6 80 61 88.8 104.4 1.2 6 2.6 12.8 3 15 0.4 2.2 0.6-52.8 0.4-122-0.4-108.2-0.8-127.4-3.6-136-12.4-39.6-33-68.2-63.6-88-19.6-12.8-36.2-19-65-24.2l-8-1.4 8.8-1.6c45-8.4 78.2-55.6 70.6-101-8.4-51-56.2-84.4-106.2-74.6zM139 603.2C106.8 610 83.2 627 70 652.8c-27.2 53.8 6.4 116.2 69 127.8 2.4 0.4 1 1.2-4 2.2-52.2 9.2-91.8 36.2-115.6 78.6-4 7.6-9.8 20.8-12.8 29.6C1.6 906 1.2 909.8 0.4 953.2c-0.8 44-0.6 46.6 3.4 54.4 2.8 5.6 7 9.8 12.2 12.4 7.6 3.8 11.4 4 147 4H302v-50.6c0-54.2-1.4-68.2-9.2-90.2-18.8-53.8-63.2-89.8-123.8-100.4l-8-1.4 8.8-1.6c15-2.8 33.6-12.8 45.4-24.6 34.8-34.8 34.8-91.6 0-126.4-19.6-19.4-52.4-30.4-76.2-25.6zM494.2 604c-45.8 9.8-78.2 55.8-70.6 101.2 6.2 37.2 35.4 68 70.6 74.6l8.8 1.6-8 1.4c-60.6 10.6-105 46.6-123.8 100.4-7.8 22-9.2 36-9.2 90.2V1024h302.4l-0.8-58.6c-0.8-57-1-58.8-6.2-74.4-20-59.2-64.6-97-128.4-108.2-5-1-6.4-1.8-4-2.2 40.8-7.6 71-36.8 77.4-75.2 7-42.2-21.6-86.6-64-99.2-11.6-3.4-33.4-4.4-44.2-2.2z" p-id="22082" fill="#00D2B4"></path><path d="M856.2 604.2c-45.4 8.8-78.2 55.6-70.6 101 6.2 37.2 35.4 68 70.6 74.6l8.8 1.6-8 1.4c-60.6 10.6-105 46.6-123.8 100.4-7.8 22-9.2 36-9.2 90.2V1024h138c134.6 0 138.4-0.2 146-4 14.2-7.2 16-13.6 16-58.4 0-42.6-1.8-57.2-9.2-78.4-18.8-53.8-63.2-89.8-123.8-100.4l-8-1.4 8.8-1.6c45-8.4 78.2-55.6 70.6-101-8.4-51-56.2-84.4-106.2-74.6z" p-id="22083" fill="#00D2B4"></path></svg>