<?xml version="1.0" standalone="no"?><!DOCTYPE svg PUBLIC "-//W3C//DTD SVG 1.1//EN" "http://www.w3.org/Graphics/SVG/1.1/DTD/svg11.dtd"><svg t="1721834077209" class="icon" viewBox="0 0 1024 1024" version="1.1" xmlns="http://www.w3.org/2000/svg" p-id="14728" xmlns:xlink="http://www.w3.org/1999/xlink" width="256" height="256"><path d="M272.896 354.304l9.728 8.704V263.68l-0.512-1.024c-8.192-17.92-12.288-37.376-12.288-56.832 0-77.312 63.488-140.288 141.824-140.288S553.984 128 553.984 205.312c0 10.24-1.024 20.48-3.584 30.72l-1.536 6.656 7.168 0.512c16.896 0.512 32.256 7.168 43.52 18.944l7.168 7.168 2.56-9.728c5.12-18.432 7.68-36.352 7.68-54.272C616.96 93.696 524.8 3.072 411.648 3.072s-204.8 91.136-204.8 202.752c0 55.808 24.064 110.08 66.048 148.48z" p-id="14729" fill="#00D2B4"></path><path d="M838.656 388.096h-2.56c-16.384 0-31.744 3.584-46.592 11.776-15.872-38.4-51.712-62.464-92.672-62.464-17.408 0-34.304 4.096-49.152 11.776C631.808 311.296 595.968 286.72 554.496 286.72c-14.336 0-27.648 2.56-40.448 8.192V206.336c0-57.344-44.032-101.888-100.864-101.888-57.344 0-103.936 45.568-103.936 101.888v359.424l-49.664-48.64C218.112 476.16 146.432 483.84 112.64 517.12c-33.28 32.768-57.856 101.376-7.168 151.04L379.904 936.96c5.632 5.632 11.776 10.24 18.944 14.848 48.64 38.912 107.008 65.024 231.936 65.024 284.672 0 308.224-158.208 308.224-334.848V489.984c-0.512-57.344-44.032-101.888-100.352-101.888zM222.208 568.32L307.2 651.264c18.432 18.432 37.376 36.352 55.808 54.784l9.728 9.728V216.576c0-22.016 18.432-39.936 40.448-39.936 21.504 0 37.376 16.896 37.376 39.936v313.856c0 16.896 14.336 31.232 31.744 31.232 17.408 0 31.232-13.824 31.744-30.208V399.36c0-22.528 16.384-39.936 38.4-39.936 0 0 17.92 0 29.184 11.264 6.656 6.656 10.24 16.384 10.24 28.672v172.032c0 16.896 14.336 31.232 31.744 31.232 17.408 0 31.232-13.824 31.744-30.208V450.048c0-22.528 16.384-39.936 37.888-39.936 1.536 0 40.96 3.072 40.96 39.936v152.064c0 16.896 14.336 31.232 31.744 31.232 17.408 0 30.72-13.312 31.232-30.208V497.152c0-22.528 16.896-39.936 39.424-39.936 0 0 16.896-0.512 28.16 10.24 7.168 6.656 10.752 16.896 10.752 29.696v186.368c0 152.064 0 272.384-244.736 272.384-100.352 0-164.352-20.48-213.504-68.608L157.696 631.808c-20.992-20.992-14.336-46.08 1.536-61.952 8.704-8.192 20.992-12.8 32.768-12.8 11.264 0 22.528 3.584 30.208 11.264z" p-id="14730" fill="#00D2B4"></path></svg>