<?xml version="1.0" standalone="no"?><!DOCTYPE svg PUBLIC "-//W3C//DTD SVG 1.1//EN" "http://www.w3.org/Graphics/SVG/1.1/DTD/svg11.dtd"><svg t="1720249452687" class="icon" viewBox="0 0 1024 1024" version="1.1" xmlns="http://www.w3.org/2000/svg" p-id="29416" xmlns:xlink="http://www.w3.org/1999/xlink" width="200" height="200"><path d="M816 160c-0.03 0.081-583.806-0.058-607.28 0-75.29 5.062-103.291 53.484-96.72 145.077 0.014 68.662-0.013 115.74 0 133.555 1.851 270.04-7.878 356.354 14.286 379.708C168 881.831 231.518 860.187 268.341 864h408.6c102.167-0.971 145.506 3.033 166.757-4.071 98.3-34.477 61.592-127.652 68.307-276.281-0.017-174.453 0.007-179.514 0-327.07C912.661 206.53 872.108 160.39 816 160z m32 608a32.036 32.036 0 0 1-32 32H208a32.036 32.036 0 0 1-32-32V425h672zM176 361c4.27-186.583-52.731-127.417 340.56-137 393.868 7.23 324.562-43.109 331.44 137z" fill="#28D2B4" p-id="29417"></path><path d="M304 296c-2.644 44.256-63.044 40.36-64 0 2.644-44.256 63.044-40.36 64 0zM400 296c-2.644 44.256-63.044 40.36-64 0 2.644-44.256 63.044-40.36 64 0zM496 296c-2.644 44.256-63.044 40.36-64 0 2.644-44.256 63.044-40.36 64 0zM384 759c-36.115-4.592-32.029-27.815-32-64.841 0.3-34.64-4.455-52.425 24.985-62.388 40.143-3.727 40.328 25.924 39.014 64.07 0.431 35.978 3.085 58.851-31.999 63.159zM640 759c-48.582-4.515-27.7-57.614-32-125.444 2.452-71.631-10.417-118.417 20.6-128.464 61.138-12.749 39.715 56.359 43.4 126.759-3.05 72.029 14.134 124.41-32 127.149zM512 759c-45.868-5.814-28.762-45.4-32-98.548 1.841-52.934-9.925-84.416 27.273-93.105 50.4-0.791 33.992 45.192 36.73 98.2C542.176 719.224 554.653 754.17 512 759z" fill="#28D2B4" p-id="29418"></path></svg>